# xmcd
#
# Track frame offsets:
#	182
#	14042
#	30042
#	41360
#	50510
#	62845
#	79740
#	92600
#	108382
#	123542
#	137190
#	153292
#	163465
#	175455
#
# Disc length: 2464
#
# Revision: 1
# Processed by: cddbd v1.5.1PL0 Copyright (c) Steve Scherf et al.
# Submitted via: CD-DA_X-Tractor v0.21
# Normalized: r0:TRMNUM
#
DISCID=b8099e0e
DTITLE=GIorgio Gaber - I grandi successi di
DYEAR=1900
DGENRE=
TTITLE0=La balilla
TTITLE1=Barbera e champagne
TTITLE2=Il Riccardo
TTITLE3=Il truccamotori
TTITLE4=Torpedo blu
TTITLE5=La ballata del Cerruti
TTITLE6=La pum pum rumba
TTITLE7=Porta romana
TTITLE8=Com'è bella la città
TTITLE9=A la moda del varietà
TTITLE10=Trani a gogò
TTITLE11=L'orgia
TTITLE12=Vola vola
TTITLE13=Goganga
EXTD=
EXTT0=
EXTT1=
EXTT2=
EXTT3=
EXTT4=
EXTT5=
EXTT6=
EXTT7=
EXTT8=
EXTT9=
EXTT10=
EXTT11=
EXTT12=
EXTT13=
PLAYORDER=
